<svg width="21" height="21" viewBox="0 0 21 21" fill="none" xmlns="http://www.w3.org/2000/svg">
<path d="M19.1425 11.6766C18.9852 13.3788 18.3463 15.001 17.3007 16.3534C16.2551 17.7058 14.846 18.7324 13.2382 19.3131C11.6304 19.8939 9.89046 20.0047 8.22198 19.6327C6.5535 19.2607 5.02547 18.4211 3.8167 17.2124C2.60794 16.0036 1.76842 14.4756 1.39639 12.8071C1.02435 11.1386 1.1352 9.39868 1.71594 7.79089C2.29668 6.18311 3.32331 4.77396 4.67569 3.72835C6.02807 2.68274 7.65028 2.0439 9.35248 1.8866C8.35589 3.23486 7.87633 4.89605 8.00101 6.56801C8.12569 8.23998 8.84634 9.81165 10.0319 10.9972C11.2174 12.1827 12.7891 12.9034 14.4611 13.0281C16.133 13.1527 17.7942 12.6732 19.1425 11.6766Z" stroke="#161817" stroke-width="2" stroke-linecap="round" stroke-linejoin="round"/>
</svg>
